<svg xmlns="http://www.w3.org/2000/svg" viewBox="0 0 460 660" width="460" height="660">
<rect x="0" y="0" width="460" height="660" fill="#f8fafc" />
<rect x="40" y="36" width="380" height="460" rx="16" fill="#ffffff" stroke="#e2e8f0" stroke-width="2" />
<rect x="40" y="36" width="380" height="44" rx="16" fill="#eef2f7" />
<rect x="40" y="58" width="380" height="22" fill="#eef2f7" />
<circle cx="60" cy="58" r="5" fill="#cbd5e1" /><circle cx="76" cy="58" r="5" fill="#cbd5e1" /><circle cx="92" cy="58" r="5" fill="#cbd5e1" />
<text x="230" y="64" font-size="15" fill="#0f172a" text-anchor="middle" font-weight="600" font-family="'Hiragino Sans','Noto Sans JP','Yu Gothic',sans-serif">Cloudflare</text>
<line x1="40" y1="80" x2="420" y2="80" stroke="#e2e8f0" stroke-width="1.5" />
<text x="70" y="136" font-size="13" fill="#64748b" text-anchor="start" font-weight="normal" font-family="'Hiragino Sans','Noto Sans JP','Yu Gothic',sans-serif">メールアドレス</text>
<rect x="70" y="146" width="320" height="44" rx="8" fill="#ffffff" stroke="#cbd5e1" stroke-width="1.5" />
<text x="84" y="173" font-size="15" fill="#94a3b8" text-anchor="start" font-weight="normal" font-family="'Hiragino Sans','Noto Sans JP','Yu Gothic',sans-serif">you@example.com</text>
<text x="70" y="226" font-size="13" fill="#64748b" text-anchor="start" font-weight="normal" font-family="'Hiragino Sans','Noto Sans JP','Yu Gothic',sans-serif">パスワード</text>
<rect x="70" y="236" width="320" height="44" rx="8" fill="#ffffff" stroke="#cbd5e1" stroke-width="1.5" />
<text x="84" y="263" font-size="15" fill="#94a3b8" text-anchor="start" font-weight="normal" font-family="'Hiragino Sans','Noto Sans JP','Yu Gothic',sans-serif">••••••••</text>
<rect x="70" y="326" width="320" height="50" rx="10" fill="#2563eb" />
<text x="230" y="356.6" font-size="16" fill="#ffffff" text-anchor="middle" font-weight="600" font-family="'Hiragino Sans','Noto Sans JP','Yu Gothic',sans-serif">アカウントを作成</text>
<rect x="64" y="320" width="332" height="62" rx="14" fill="none" stroke="#ef4444" stroke-width="4" />
<circle cx="60" cy="316" r="15" fill="#ef4444" stroke="#ffffff" stroke-width="2" />
<text x="60" y="321.25" font-size="17.25" fill="#ffffff" text-anchor="middle" font-weight="bold" font-family="'Hiragino Sans','Noto Sans JP','Yu Gothic',sans-serif">1</text>
<rect x="40" y="520" width="380" height="56" rx="10" fill="#fef9c3" stroke="#fde68a" stroke-width="1.5" />
<text x="56" y="552.225" font-size="13" fill="#0f172a" text-anchor="start" font-weight="normal" font-family="'Hiragino Sans','Noto Sans JP','Yu Gothic',sans-serif">届いたメールのリンクを押して確認</text>
<text x="230" y="646" font-size="12" fill="#94a3b8" text-anchor="middle" font-weight="normal" font-family="'Hiragino Sans','Noto Sans JP','Yu Gothic',sans-serif">イラスト(実際の画面とは細部が異なります)</text>

</svg>