<svg xmlns="http://www.w3.org/2000/svg" viewBox="0 0 480 780" width="480" height="780">
<rect x="0" y="0" width="480" height="780" fill="#f8fafc" />
<rect x="90" y="40" width="300" height="620" rx="36" fill="#1e293b" />
<rect x="100" y="50" width="280" height="600" rx="28" fill="#ffffff" />
<rect x="101" y="110" width="56" height="56" rx="14" fill="#cbd5e1" />
<rect x="175" y="110" width="56" height="56" rx="14" fill="#cbd5e1" />
<rect x="249" y="110" width="56" height="56" rx="14" fill="#cbd5e1" />
<rect x="323" y="110" width="56" height="56" rx="14" fill="#cbd5e1" />
<rect x="101" y="184" width="56" height="56" rx="14" fill="#cbd5e1" />
<rect x="175" y="184" width="56" height="56" rx="14" fill="#cbd5e1" />
<rect x="249" y="184" width="56" height="56" rx="14" fill="#0f172a" />
<polyline points="259,220.8 268,214.3 277,216.9 286,205.2 295,201.3" fill="none" stroke="#22c55e" stroke-width="3" stroke-linecap="round" stroke-linejoin="round" />
<rect x="323" y="184" width="56" height="56" rx="14" fill="#cbd5e1" />
<rect x="101" y="258" width="56" height="56" rx="14" fill="#cbd5e1" />
<rect x="175" y="258" width="56" height="56" rx="14" fill="#cbd5e1" />
<rect x="249" y="258" width="56" height="56" rx="14" fill="#cbd5e1" />
<rect x="323" y="258" width="56" height="56" rx="14" fill="#cbd5e1" />
<rect x="101" y="332" width="56" height="56" rx="14" fill="#cbd5e1" />
<rect x="175" y="332" width="56" height="56" rx="14" fill="#cbd5e1" />
<rect x="249" y="332" width="56" height="56" rx="14" fill="#cbd5e1" />
<rect x="323" y="332" width="56" height="56" rx="14" fill="#cbd5e1" />
<rect x="101" y="406" width="56" height="56" rx="14" fill="#cbd5e1" />
<rect x="175" y="406" width="56" height="56" rx="14" fill="#cbd5e1" />
<rect x="249" y="406" width="56" height="56" rx="14" fill="#cbd5e1" />
<rect x="323" y="406" width="56" height="56" rx="14" fill="#cbd5e1" />
<text x="277" y="256" font-size="12" fill="#0f172a" text-anchor="middle" font-weight="normal" font-family="'Hiragino Sans','Noto Sans JP','Yu Gothic',sans-serif">株価</text>
<rect x="243" y="178" width="68" height="90" rx="16" fill="none" stroke="#ef4444" stroke-width="4" />
<circle cx="323" cy="180" r="15" fill="#ef4444" stroke="#ffffff" stroke-width="2" />
<text x="323" y="185.25" font-size="17.25" fill="#ffffff" text-anchor="middle" font-weight="bold" font-family="'Hiragino Sans','Noto Sans JP','Yu Gothic',sans-serif">1</text>
<text x="240" y="694" font-size="15" fill="#0f172a" text-anchor="middle" font-weight="normal" font-family="'Hiragino Sans','Noto Sans JP','Yu Gothic',sans-serif">このアイコンから開く</text>
<text x="240" y="713.5" font-size="15" fill="#0f172a" text-anchor="middle" font-weight="normal" font-family="'Hiragino Sans','Noto Sans JP','Yu Gothic',sans-serif">(Safari ではなく)</text>
<text x="240" y="766" font-size="12" fill="#94a3b8" text-anchor="middle" font-weight="normal" font-family="'Hiragino Sans','Noto Sans JP','Yu Gothic',sans-serif">イラスト(実際の画面とは細部が異なります)</text>

</svg>