<svg xmlns="http://www.w3.org/2000/svg" viewBox="0 0 480 720" width="480" height="720">
<rect x="0" y="0" width="480" height="720" fill="#f8fafc" />
<rect x="90" y="40" width="300" height="620" rx="36" fill="#1e293b" />
<rect x="100" y="50" width="280" height="600" rx="28" fill="#ffffff" />
<rect x="120" y="90" width="210" height="12" rx="4" fill="#f1f5f9" />
<rect x="120" y="116" width="210" height="12" rx="4" fill="#f1f5f9" />
<rect x="120" y="142" width="210" height="12" rx="4" fill="#f1f5f9" />
<rect x="120" y="168" width="210" height="12" rx="4" fill="#f1f5f9" />
<rect x="120" y="194" width="210" height="12" rx="4" fill="#f1f5f9" />
<rect x="120" y="220" width="210" height="12" rx="4" fill="#f1f5f9" />
<rect x="116" y="240" width="248" height="220" rx="18" fill="#ffffff" stroke="#e2e8f0" stroke-width="1.5" />
<text x="240" y="280" font-size="16" fill="#0f172a" text-anchor="middle" font-weight="700" font-family="'Hiragino Sans','Noto Sans JP','Yu Gothic',sans-serif">通知を許可しますか?</text>
<text x="240" y="310" font-size="12" fill="#64748b" text-anchor="middle" font-weight="normal" font-family="'Hiragino Sans','Noto Sans JP','Yu Gothic',sans-serif">新着の株価アラートをお知らせします</text>
<line x1="116" y1="410" x2="364" y2="410" stroke="#e2e8f0" stroke-width="1" />
<line x1="240" y1="410" x2="240" y2="460" stroke="#e2e8f0" stroke-width="1" />
<text x="178" y="442" font-size="15" fill="#64748b" text-anchor="middle" font-weight="normal" font-family="'Hiragino Sans','Noto Sans JP','Yu Gothic',sans-serif">許可しない</text>
<text x="302" y="442" font-size="15" fill="#2563eb" text-anchor="middle" font-weight="700" font-family="'Hiragino Sans','Noto Sans JP','Yu Gothic',sans-serif">許可</text>
<rect x="246" y="410" width="118" height="50" rx="0" fill="none" stroke="#ef4444" stroke-width="4" />
<circle cx="350" cy="402" r="15" fill="#ef4444" stroke="#ffffff" stroke-width="2" />
<text x="350" y="407.25" font-size="17.25" fill="#ffffff" text-anchor="middle" font-weight="bold" font-family="'Hiragino Sans','Noto Sans JP','Yu Gothic',sans-serif">1</text>
<text x="240" y="706" font-size="12" fill="#94a3b8" text-anchor="middle" font-weight="normal" font-family="'Hiragino Sans','Noto Sans JP','Yu Gothic',sans-serif">イラスト(実際の画面とは細部が異なります)</text>

</svg>