<svg xmlns="http://www.w3.org/2000/svg" viewBox="0 0 420 830" width="420" height="830">
<rect x="0" y="0" width="420" height="830" fill="#f8fafc" />
<rect x="40" y="30" width="340" height="156" rx="16" fill="#ffffff" stroke="#e2e8f0" stroke-width="2" />
<rect x="178" y="50" width="64" height="14" rx="4" fill="#e2e8f0" stroke="#0f172a" stroke-width="1.5" />
<circle cx="188" cy="57" r="2.5" fill="#16a34a" />
<rect x="178" y="70" width="64" height="14" rx="4" fill="#e2e8f0" stroke="#0f172a" stroke-width="1.5" />
<circle cx="188" cy="77" r="2.5" fill="#16a34a" />
<rect x="178" y="90" width="64" height="14" rx="4" fill="#e2e8f0" stroke="#0f172a" stroke-width="1.5" />
<circle cx="188" cy="97" r="2.5" fill="#16a34a" />
<text x="210" y="134" font-size="18" fill="#0f172a" text-anchor="middle" font-weight="700" font-family="'Hiragino Sans','Noto Sans JP','Yu Gothic',sans-serif">あなた専用のサーバー</text>
<text x="210" y="157.4" font-size="18" fill="#0f172a" text-anchor="middle" font-weight="700" font-family="'Hiragino Sans','Noto Sans JP','Yu Gothic',sans-serif">（Cloudflare・無料）</text>
<text x="210" y="216" font-size="16" fill="#64748b" text-anchor="middle" font-weight="normal" font-family="'Hiragino Sans','Noto Sans JP','Yu Gothic',sans-serif">5分ごとに株価を確認</text>
<line x1="210" y1="240" x2="210" y2="300" stroke="#64748b" stroke-width="4" />
<polygon points="210,312 201,296 219,296" fill="#64748b" />
<text x="232" y="276" font-size="16" fill="#64748b" text-anchor="start" font-weight="600" font-family="'Hiragino Sans','Noto Sans JP','Yu Gothic',sans-serif">通知</text>
<rect x="40" y="336" width="340" height="118" rx="16" fill="#ffffff" stroke="#e2e8f0" stroke-width="2" />
<rect x="190" y="352" width="40" height="68" rx="8" fill="#e2e8f0" stroke="#0f172a" stroke-width="1.5" />
<line x1="202" y1="412" x2="218" y2="412" stroke="#0f172a" stroke-width="2" stroke-linecap="round" />
<text x="210" y="440" font-size="18" fill="#0f172a" text-anchor="middle" font-weight="700" font-family="'Hiragino Sans','Noto Sans JP','Yu Gothic',sans-serif">iPhone（ホーム画面のアプリ）</text>
<line x1="210" y1="484" x2="210" y2="544" stroke="#64748b" stroke-width="4" />
<polygon points="210,556 201,540 219,540" fill="#64748b" />
<text x="232" y="520" font-size="16" fill="#64748b" text-anchor="start" font-weight="600" font-family="'Hiragino Sans','Noto Sans JP','Yu Gothic',sans-serif">自動で転送</text>
<rect x="40" y="580" width="340" height="156" rx="16" fill="#ffffff" stroke="#e2e8f0" stroke-width="2" />
<rect x="228" y="614.8" width="6" height="7.840000000000001" fill="#0f172a" />
<rect x="188" y="598" width="44" height="56" rx="14" fill="#e2e8f0" stroke="#0f172a" stroke-width="1.5" />
<text x="210" y="684" font-size="18" fill="#0f172a" text-anchor="middle" font-weight="700" font-family="'Hiragino Sans','Noto Sans JP','Yu Gothic',sans-serif">Apple Watch</text>
<text x="210" y="766" font-size="16" fill="#64748b" text-anchor="middle" font-weight="normal" font-family="'Hiragino Sans','Noto Sans JP','Yu Gothic',sans-serif">株価アプリでチャートもいつでも</text>
<text x="210" y="798" font-size="15" fill="#94a3b8" text-anchor="middle" font-weight="normal" font-family="'Hiragino Sans','Noto Sans JP','Yu Gothic',sans-serif">イラスト（実際の画面とは細部が異なります）</text>

</svg>